<svg width="251" height="27" viewBox="0 0 251 27" fill="none" xmlns="http://www.w3.org/2000/svg">
<path d="M24.2102 10.7302C24.2102 10.4548 24.101 10.1906 23.9066 9.99589C23.7123 9.80114 23.4486 9.69172 23.1737 9.69172C22.8989 9.69172 22.6352 9.80114 22.4408 9.99589C22.2465 10.1906 22.1373 10.4548 22.1373 10.7302H24.2102ZM4.86273 10.7302C4.86273 10.4548 4.75353 10.1906 4.55915 9.99589C4.36478 9.80114 4.10114 9.69172 3.82625 9.69172C3.55136 9.69172 3.28773 9.80114 3.09336 9.99589C2.89898 10.1906 2.78978 10.4548 2.78978 10.7302H4.86273ZM25.2052 14.2334C25.3001 14.3354 25.4145 14.4173 25.5417 14.474C25.6688 14.5308 25.8061 14.5613 25.9452 14.5638C26.0844 14.5662 26.2226 14.5406 26.3517 14.4884C26.4808 14.4361 26.598 14.3584 26.6964 14.2598C26.7948 14.1612 26.8724 14.0437 26.9246 13.9144C26.9767 13.7851 27.0023 13.6466 26.9998 13.5071C26.9974 13.3677 26.9669 13.2302 26.9103 13.1028C26.8536 12.9754 26.7719 12.8607 26.6701 12.7657L25.2052 14.2334ZM13.5 1.03758L14.2324 0.303712C14.0381 0.109235 13.7747 0 13.5 0C13.2253 0 12.9619 0.109235 12.7676 0.303712L13.5 1.03758ZM0.329886 12.7657C0.228054 12.8607 0.146377 12.9754 0.0897274 13.1028C0.033078 13.2302 0.00261676 13.3677 0.000161304 13.5071C-0.00229415 13.6466 0.0233062 13.7851 0.0754353 13.9144C0.127564 14.0437 0.205154 14.1612 0.303576 14.2598C0.401998 14.3584 0.519235 14.4361 0.648294 14.4884C0.777353 14.5406 0.91559 14.5662 1.05476 14.5638C1.19393 14.5613 1.33117 14.5308 1.45831 14.474C1.58545 14.4173 1.69988 14.3354 1.79477 14.2334L0.329886 12.7657ZM6.59018 27H20.4098V24.923H6.59018V27ZM24.2102 23.1922V10.7302H22.1373V23.1922H24.2102ZM4.86273 23.1922V10.7302H2.78978V23.1922H4.86273ZM26.6701 12.7657L14.2324 0.303712L12.7676 1.77145L25.2052 14.2334L26.6701 12.7657ZM12.7676 0.303712L0.329886 12.7657L1.79477 14.2334L14.2324 1.77145L12.7676 0.303712ZM20.4098 27C21.4177 27 22.3844 26.5988 23.0971 25.8847C23.8098 25.1706 24.2102 24.2021 24.2102 23.1922H22.1373C22.1373 24.1476 21.3634 24.923 20.4098 24.923V27ZM6.59018 24.923C5.63663 24.923 4.86273 24.1476 4.86273 23.1922H2.78978C2.78978 24.2021 3.19018 25.1706 3.90289 25.8847C4.61561 26.5988 5.58225 27 6.59018 27V24.923Z" fill="#F5F5F5"/>
<path d="M250.657 16.9319L248.649 15.2443C248.744 14.6717 248.793 14.0871 248.793 13.5024C248.793 12.9178 248.744 12.3332 248.649 11.7606L250.657 10.073C250.808 9.94551 250.917 9.77575 250.967 9.58626C251.018 9.39678 251.009 9.19654 250.942 9.01218L250.914 8.93382C250.361 7.41505 249.534 6.00712 248.471 4.77807L248.416 4.71478C248.287 4.56576 248.115 4.45864 247.923 4.40754C247.731 4.35643 247.528 4.36373 247.34 4.42849L244.848 5.29942C243.928 4.55807 242.901 3.97343 241.792 3.56358L241.311 1.00202C241.274 0.809279 241.179 0.63196 241.038 0.493621C240.897 0.355283 240.716 0.262475 240.52 0.227527L240.437 0.212459C238.84 -0.0708196 237.16 -0.0708196 235.563 0.212459L235.48 0.227527C235.284 0.262475 235.103 0.355283 234.962 0.493621C234.821 0.63196 234.726 0.809279 234.689 1.00202L234.205 3.57564C233.104 3.98557 232.079 4.5699 231.17 5.30545L228.66 4.42849C228.472 4.36322 228.269 4.35565 228.077 4.40679C227.884 4.45793 227.713 4.56535 227.584 4.71478L227.529 4.77807C226.468 6.00799 225.64 7.41568 225.086 8.93382L225.058 9.01218C224.92 9.38888 225.034 9.81078 225.343 10.073L227.376 11.7787C227.281 12.3452 227.235 12.9238 227.235 13.4994C227.235 14.078 227.281 14.6567 227.376 15.2202L225.343 16.9259C225.192 17.0534 225.083 17.2231 225.033 17.4126C224.982 17.6021 224.991 17.8023 225.058 17.9867L225.086 18.065C225.641 19.5839 226.462 20.9852 227.529 22.2208L227.584 22.2841C227.713 22.4331 227.885 22.5402 228.077 22.5913C228.269 22.6424 228.472 22.6351 228.66 22.5704L231.17 21.6934C232.084 22.4317 233.105 23.0164 234.205 23.4232L234.689 25.9968C234.726 26.1896 234.821 26.3669 234.962 26.5052C235.103 26.6436 235.284 26.7364 235.48 26.7713L235.563 26.7864C237.175 27.0712 238.825 27.0712 240.437 26.7864L240.52 26.7713C240.716 26.7364 240.897 26.6436 241.038 26.5052C241.179 26.3669 241.274 26.1896 241.311 25.9968L241.792 23.4353C242.901 23.0265 243.934 22.44 244.848 21.6994L247.34 22.5704C247.528 22.6356 247.731 22.6432 247.923 22.5921C248.116 22.5409 248.287 22.4335 248.416 22.2841L248.471 22.2208C249.538 20.9822 250.359 19.5839 250.914 18.065L250.942 17.9867C251.08 17.616 250.966 17.1941 250.657 16.9319ZM246.473 12.1162C246.549 12.5712 246.589 13.0383 246.589 13.5055C246.589 13.9726 246.549 14.4397 246.473 14.8947L246.27 16.1032L248.56 18.0289C248.213 18.8151 247.775 19.5593 247.254 20.2469L244.41 19.2554L243.447 20.0329C242.714 20.6236 241.899 21.0877 241.016 21.4132L239.848 21.8441L239.3 24.7673C238.434 24.8637 237.56 24.8637 236.694 24.7673L236.145 21.8381L234.987 21.4011C234.113 21.0756 233.301 20.6115 232.574 20.0239L231.612 19.2434L228.749 20.2439C228.228 19.5538 227.793 18.8094 227.443 18.0259L229.757 16.0821L229.558 14.8766C229.485 14.4276 229.445 13.9635 229.445 13.5055C229.445 13.0444 229.481 12.5833 229.558 12.1343L229.757 10.9288L227.443 8.98505C227.789 8.1985 228.228 7.45716 228.749 6.76704L231.612 7.76756L232.574 6.98704C233.301 6.39938 234.113 5.93529 234.987 5.60982L236.149 5.17887L236.697 2.24965C237.559 2.15322 238.438 2.15322 239.303 2.24965L239.851 5.17285L241.019 5.60379C241.899 5.92926 242.718 6.39336 243.45 6.98402L244.413 7.76153L247.257 6.77006C247.778 7.46017 248.214 8.20453 248.563 8.98807L246.273 10.9138L246.473 12.1162ZM238.003 7.90016C235.024 7.90016 232.608 10.2749 232.608 13.2041C232.608 16.1333 235.024 18.508 238.003 18.508C240.983 18.508 243.398 16.1333 243.398 13.2041C243.398 10.2749 240.983 7.90016 238.003 7.90016ZM240.431 15.5909C240.112 15.9048 239.734 16.1538 239.317 16.3234C238.901 16.493 238.454 16.58 238.003 16.5793C237.087 16.5793 236.225 16.2267 235.575 15.5909C235.256 15.2778 235.003 14.9058 234.83 14.4962C234.658 14.0866 234.569 13.6474 234.57 13.2041C234.57 12.303 234.929 11.4562 235.575 10.8173C236.225 10.1784 237.087 9.82886 238.003 9.82886C238.92 9.82886 239.781 10.1784 240.431 10.8173C240.75 11.1304 241.003 11.5024 241.176 11.912C241.348 12.3216 241.437 12.7607 241.436 13.2041C241.436 14.1052 241.078 14.952 240.431 15.5909Z" fill="#F5F5F5"/>
<path d="M163.5 27C161.632 27 159.877 26.6454 158.235 25.9362C156.593 25.227 155.164 24.2653 153.949 23.0512C152.734 21.8363 151.772 20.4075 151.064 18.765C150.356 17.1225 150.001 15.3675 150 13.5C150 11.6325 150.355 9.8775 151.064 8.235C151.773 6.5925 152.735 5.16375 153.949 3.94875C155.164 2.73375 156.593 1.7721 158.235 1.0638C159.877 0.3555 161.632 0.0009 163.5 0H164.85V11.1712C165.255 11.4187 165.581 11.7396 165.829 12.1338C166.076 12.528 166.2 12.9834 166.2 13.5C166.2 14.2425 165.935 14.8783 165.406 15.4075C164.877 15.9367 164.242 16.2009 163.5 16.2C162.757 16.2 162.122 15.9354 161.592 15.4062C161.063 14.877 160.799 14.2416 160.8 13.5C160.8 12.9825 160.924 12.5212 161.171 12.1163C161.419 11.7112 161.745 11.3962 162.15 11.1712V8.26875C160.98 8.58375 160.012 9.2196 159.247 10.1763C158.483 11.133 158.1 12.2409 158.1 13.5C158.1 14.985 158.629 16.2562 159.686 17.3137C160.744 18.3712 162.015 18.9 163.5 18.9C164.985 18.9 166.256 18.3712 167.314 17.3137C168.371 16.2562 168.9 14.985 168.9 13.5C168.9 12.69 168.737 11.9416 168.41 11.2549C168.083 10.5682 167.639 9.9666 167.077 9.45L169.001 7.52625C169.789 8.26875 170.419 9.1521 170.891 10.1763C171.364 11.2005 171.6 12.3084 171.6 13.5C171.6 15.75 170.812 17.6625 169.237 19.2375C167.662 20.8125 165.75 21.6 163.5 21.6C161.25 21.6 159.337 20.8125 157.762 19.2375C156.187 17.6625 155.4 15.75 155.4 13.5C155.4 11.475 156.041 9.71415 157.324 8.21745C158.606 6.72075 160.215 5.81535 162.15 5.50125V2.7675C159.472 3.105 157.228 4.28625 155.416 6.31125C153.604 8.33625 152.699 10.7325 152.7 13.5C152.7 16.515 153.746 19.0687 155.839 21.1612C157.931 23.2537 160.485 24.3 163.5 24.3C166.515 24.3 169.069 23.2537 171.161 21.1612C173.254 19.0687 174.3 16.515 174.3 13.5C174.3 11.9475 173.996 10.4962 173.389 9.14625C172.781 7.79625 171.949 6.62625 170.891 5.63625L172.815 3.7125C174.097 4.95 175.116 6.4071 175.87 8.0838C176.624 9.7605 177.001 11.5659 177 13.5C177 15.3675 176.645 17.1225 175.936 18.765C175.227 20.4075 174.265 21.8363 173.051 23.0512C171.836 24.2662 170.407 25.2283 168.765 25.9375C167.122 26.6467 165.367 27.0009 163.5 27Z" fill="#F5F5F5"/>
<path d="M97.95 2.7H95.25V1.35C95.25 0.991958 95.1078 0.64858 94.8546 0.395406C94.6014 0.142232 94.258 0 93.9 0C93.542 0 93.1986 0.142232 92.9454 0.395406C92.6922 0.64858 92.55 0.991958 92.55 1.35V2.7H84.45V1.35C84.45 0.991958 84.3078 0.64858 84.0546 0.395406C83.8014 0.142232 83.458 0 83.1 0C82.742 0 82.3986 0.142232 82.1454 0.395406C81.8922 0.64858 81.75 0.991958 81.75 1.35V2.7H79.05C77.9759 2.7 76.9457 3.1267 76.1862 3.88622C75.4267 4.64574 75 5.67587 75 6.75V22.95C75 24.0241 75.4267 25.0543 76.1862 25.8138C76.9457 26.5733 77.9759 27 79.05 27H97.95C99.0241 27 100.054 26.5733 100.814 25.8138C101.573 25.0543 102 24.0241 102 22.95V6.75C102 5.67587 101.573 4.64574 100.814 3.88622C100.054 3.1267 99.0241 2.7 97.95 2.7ZM99.3 22.95C99.3 23.308 99.1578 23.6514 98.9046 23.9046C98.6514 24.1578 98.308 24.3 97.95 24.3H79.05C78.692 24.3 78.3486 24.1578 78.0954 23.9046C77.8422 23.6514 77.7 23.308 77.7 22.95V13.5H99.3V22.95ZM99.3 10.8H77.7V6.75C77.7 6.39196 77.8422 6.04858 78.0954 5.79541C78.3486 5.54223 78.692 5.4 79.05 5.4H81.75V6.75C81.75 7.10804 81.8922 7.45142 82.1454 7.70459C82.3986 7.95777 82.742 8.1 83.1 8.1C83.458 8.1 83.8014 7.95777 84.0546 7.70459C84.3078 7.45142 84.45 7.10804 84.45 6.75V5.4H92.55V6.75C92.55 7.10804 92.6922 7.45142 92.9454 7.70459C93.1986 7.95777 93.542 8.1 93.9 8.1C94.258 8.1 94.6014 7.95777 94.8546 7.70459C95.1078 7.45142 95.25 7.10804 95.25 6.75V5.4H97.95C98.308 5.4 98.6514 5.54223 98.9046 5.79541C99.1578 6.04858 99.3 6.39196 99.3 6.75V10.8Z" fill="#F5F5F5"/>
</svg>
